<svg id="Layer_1" data-name="Layer 1" xmlns="http://www.w3.org/2000/svg" viewBox="0 0 1097.63 362.44"><defs><style>.cls-1,.cls-2{fill:#fff;}.cls-2{stroke:#ea5b0c;stroke-miterlimit:10;stroke-width:9px;}</style></defs><title>2 Local logo final wht</title><path class="cls-1" d="M301.11,463.59c.08-2.93.07-5.81.24-8.68A134.63,134.63,0,0,1,303,440.62a138.85,138.85,0,0,1,4.4-18.52,137.26,137.26,0,0,1,93.52-91c32.94-9.41,64.38-.64,92.75-24.58a84.31,84.31,0,0,0,22.7-30.25,85.81,85.81,0,0,0,6.39-21.42c.28-1.77.31-3.58.57-5.35a57.54,57.54,0,0,0,.38-10.16c-.07-2.59-.41-5.17-.58-7.75a60,60,0,0,0-1.7-10.14,85.22,85.22,0,0,0-52.59-59.81,87.14,87.14,0,0,0-17.12-4.47,85.92,85.92,0,0,0-17.33-.87,79.21,79.21,0,0,0-11.86,1.54,84.33,84.33,0,0,0-47,26.92,86.65,86.65,0,0,0-16.26,27.35,66.92,66.92,0,0,0-3.09,10.68c-.57,2.92-1,5.87-1.49,8.82a51.46,51.46,0,0,0-.49,8.95c0,.19,0,.39,0,.7H301.34a7.66,7.66,0,0,1-.17-1.21c.08-2.84.11-5.68.28-8.51a132.65,132.65,0,0,1,5.22-29.31,137.13,137.13,0,0,1,36.21-59.86,134,134,0,0,1,14-11.84,136.84,136.84,0,0,1,32.3-17.66,133.15,133.15,0,0,1,23.25-6.61,152,152,0,0,1,15.2-2c5.51-.47,11-.41,16.53-.33a60.63,60.63,0,0,1,6.45.47c3.8.45,7.61.92,11.39,1.52a124.92,124.92,0,0,1,16.19,3.85A137.18,137.18,0,0,1,558,174.06a141.79,141.79,0,0,1,9.1,19.81,133,133,0,0,1,6.16,22.75,115.2,115.2,0,0,1,2,22.77c-.09,4.2,0,8.41-.33,12.59s-.86,8.1-1.49,12.12a125.34,125.34,0,0,1-5,20.1,137.38,137.38,0,0,1-5.55,14,136.93,136.93,0,0,1-30.26,42.25,125.31,125.31,0,0,1-14.6,12c-4,2.78-8.14,5.38-12.34,7.85a121.22,121.22,0,0,1-17.52,8.35,118.82,118.82,0,0,1-17.48,5.47c-12.32,2.76-25.86,3.43-38.86,4.39A79.7,79.7,0,0,0,415,381.73a85,85,0,0,0-42.55,28.74c-.26.33-.48.69-.81,1.17a8.94,8.94,0,0,0,.91.17c.4,0,.8,0,1.2,0h199.9c.47,0,.93.07,1.48.11v51.64c-30.48-.09-60.89,0-91.31,0H392.53C362.12,463.55,331.7,463.46,301.11,463.59Z" transform="translate(-301.11 -101.72)"/><path class="cls-1" d="M471.16,239.62c0,11.59-3.54,19.52-10.43,25.87a31.42,31.42,0,0,1-24.07,8.37,32.13,32.13,0,0,1-29.83-34.42A31,31,0,0,1,417,218.13a31.51,31.51,0,0,1,24.21-8.63C457.35,210.42,471.53,224.35,471.16,239.62Z" transform="translate(-301.11 -101.72)"/><path class="cls-1" d="M845.61,464.16a112.6,112.6,0,1,1,112.6-112.6A112.72,112.72,0,0,1,845.61,464.16Zm0-180.2c-36.11,0-65.48,30.32-65.48,67.6s29.37,67.6,65.48,67.6,65.48-30.33,65.48-67.6S881.72,284,845.61,284Z" transform="translate(-301.11 -101.72)"/><rect class="cls-1" x="339.35" width="64.49" height="361.42"/><rect class="cls-1" x="1033.14" y="0.48" width="64.49" height="361.42"/><path class="cls-2" d="M1246.41,386.62" transform="translate(-301.11 -101.72)"/><path class="cls-2" d="M1192.55,440.48" transform="translate(-301.11 -101.72)"/><path class="cls-1" d="M1196.32,350.11c0,11.59-3.54,19.51-10.43,25.86a31.45,31.45,0,0,1-24.06,8.38A32.14,32.14,0,0,1,1132,349.92a31,31,0,0,1,10.12-21.31,31.51,31.51,0,0,1,24.21-8.63C1182.51,320.91,1196.69,334.83,1196.32,350.11Z" transform="translate(-301.11 -101.72)"/><path class="cls-1" d="M1278.52,352c0-.13,0-.26,0-.39A112.72,112.72,0,0,0,1165.93,239c-.86,0-1.72,0-2.58.06v45.07c.87,0,1.71-.13,2.58-.13,36.11,0,65.49,30.32,65.49,67.6s-29.38,67.6-65.49,67.6c-.87,0-1.71-.1-2.58-.14v45.07c.86,0,1.72.07,2.58.07a112.1,112.1,0,0,0,71.47-25.66v25.12h64.49V352Z" transform="translate(-301.11 -101.72)"/><path class="cls-1" d="M1098.84,419.07c-35.29-1-63.71-30.86-63.71-67.51s28.42-66.53,63.71-67.51V239a112.57,112.57,0,0,0,0,225.11Z" transform="translate(-301.11 -101.72)"/></svg>